<svg width="100" height="100" viewBox="0 0 100 100" fill="none" xmlns="http://www.w3.org/2000/svg">
<circle cx="50" cy="50" r="50" fill="#ABDB06"/>
<path d="M50 20H37C36.4478 20 36 20.4478 36 21V28H21C20.4478 28 20 28.4478 20 29V79C20 79.5522 20.4478 80 21 80H50C50.5522 80 51 79.5522 51 79V21C51 20.4478 50.5522 20 50 20ZM49 72H38V70H49V72ZM22 35H36V65H22V35ZM49 31H38V28H49V31ZM22 67H36V70H22V67ZM38 68V33H49V68H38ZM49 22V26H38V22H49ZM36 30V33H22V30H36ZM22 72H36V78H22V72ZM38 78V74H49V78H38Z" fill="white"/>
<path d="M79.9678 74.7481L67.9678 28.7481C67.9009 28.4902 67.734 28.27 67.5035 28.1357C67.2735 28.002 66.9996 27.9653 66.7423 28.0342L51.7422 32.0342C51.211 32.1758 50.8936 32.7197 51.0323 33.252L63.0323 79.252C63.0992 79.5098 63.2667 79.73 63.4971 79.8638C63.7271 79.9971 64.001 80.0332 64.2579 79.9639L79.2579 75.9639C79.7882 75.8223 80.1051 75.2793 79.9678 74.7481V74.7481ZM54.8121 39.8179L67.88 36.334L68.3502 38.1338L55.2833 41.6231L54.8121 39.8179ZM68.8551 40.0742L74.6549 62.3218L61.5919 65.8071L55.7921 43.5581L68.8551 40.0742ZM75.1641 64.2578L76.1881 68.1821L63.1202 71.666L62.1002 67.7432L75.1641 64.2578ZM66.2862 30.2251L67.3751 34.3999L54.3072 37.8828L53.2193 33.71L66.2862 30.2251ZM64.7139 77.7749L63.6251 73.6001L76.6929 70.1152L77.7808 74.2881L64.7139 77.7749Z" fill="white"/>
<path d="M33 38H25C24.4478 38 24 38.4478 24 39V47C24 47.5522 24.4478 48 25 48H33C33.5522 48 34 47.5522 34 47V39C34 38.4478 33.5522 38 33 38ZM32 46H26V40H32V46Z" fill="white"/>
</svg>
