<svg width="100" height="100" viewBox="0 0 100 100" fill="none" xmlns="http://www.w3.org/2000/svg">
<circle cx="50" cy="50" r="50" fill="#ABDB06"/>
<g clip-path="url(#clip0)">
<path d="M34.2978 30.4467L41.3281 32.9279V42.8516C41.3281 43.8224 42.1152 44.6094 43.0859 44.6094H66.5234C67.4942 44.6094 68.2812 43.8224 68.2812 42.8516V32.9279L72.9688 31.2734V38.1641C72.9688 39.1349 73.7558 39.9219 74.7266 39.9219C75.6973 39.9219 76.4844 39.1349 76.4844 38.1641V28.7891C76.4844 28.0439 76.0143 27.3795 75.3116 27.1315L55.3897 20.1002C55.0112 19.9665 54.5982 19.9665 54.2197 20.1002L34.2978 27.1315C33.595 27.3795 33.125 28.0439 33.125 28.7891C33.125 29.5343 33.595 30.1986 34.2978 30.4467V30.4467ZM64.7656 41.0938H44.8438V34.1687L54.2197 37.4778C54.4089 37.5446 54.6069 37.578 54.8047 37.578C55.0025 37.578 55.2004 37.5446 55.3897 37.4778L64.7656 34.1687V41.0938ZM54.8047 23.6219L69.445 28.7891L54.8047 33.9562L40.1643 28.7891L54.8047 23.6219Z" fill="white"/>
<path d="M76.3545 52.1777C74.1398 51.4277 71.7915 52.1436 70.3711 54.0009L63.8246 62.5616C63.8257 62.515 63.8281 62.4688 63.8281 62.4219C63.8281 59.191 61.1996 56.5625 57.9688 56.5625H46.34C42.6325 53.4083 37.3927 52.847 33.125 55.0563V54.8047C33.125 53.8339 32.338 53.0469 31.3672 53.0469H21.7578C20.787 53.0469 20 53.8339 20 54.8047V78.2422C20 79.213 20.787 80 21.7578 80H31.3672C32.338 80 33.125 79.213 33.125 78.2422V76.4844H61.9372C66.1436 76.4844 70.0129 74.372 72.2877 70.8335L79.1477 60.1623C79.7053 59.295 80 58.2915 80 57.2604C80 54.9225 78.569 52.9272 76.3545 52.1777V52.1777ZM29.6094 76.4844H23.5156V56.5625H29.6094V76.4844ZM76.1905 58.2613L69.3304 68.9325C67.7056 71.4599 64.9418 72.9688 61.9372 72.9688H33.125V59.2249L33.7129 58.805C37.0105 56.4494 41.5243 56.7785 44.4457 59.5875C44.7731 59.9023 45.2097 60.0782 45.6639 60.0782H57.9686C59.261 60.0782 60.3124 61.1297 60.3124 62.422C60.3124 63.7143 59.261 64.7658 57.9686 64.7658H45.6641H45.4297C44.4589 64.7658 43.6719 65.5528 43.6719 66.5236C43.6719 67.4943 44.4589 68.2814 45.4297 68.2814H45.6641H57.9688H59.5332C62.2529 68.2814 64.8628 66.9916 66.5149 64.8313L73.1638 56.1365C73.9118 55.1584 74.9322 55.4079 75.2272 55.5078C75.5221 55.6078 76.4844 56.0292 76.4844 57.2607C76.4844 57.616 76.3828 57.9621 76.1905 58.2613V58.2613Z" fill="white"/>
</g>
<defs>
<clipPath id="clip0">
<rect width="60" height="60" fill="white" transform="translate(20 20)"/>
</clipPath>
</defs>
</svg>
