<svg id="Слой_1" data-name="Слой 1" xmlns="http://www.w3.org/2000/svg" width="100" height="100" viewBox="0 0 100 100">
  <defs>
    <style>
      .cls-1 {
        fill: #fff;
      }

      .cls-2 {
        fill: #1f6a95;
      }
    </style>
  </defs>
  <title>OMUC</title>
  <g>
    <circle class="cls-1" cx="50" cy="50" r="50"/>
    <g>
      <path class="cls-2" d="M50,47a.6.6,0,0,1-.4-.1l-17-8.1a1,1,0,0,1,0-1.8l17-8.1a1.1,1.1,0,0,1,.8,0l17,8.1a1,1,0,0,1,0,1.8l-17,8.1C50.3,46.9,50.1,47,50,47ZM35.4,37.9l14.6,7,14.6-7L50,31Z"/>
      <path class="cls-2" d="M50,55a.9.9,0,0,1-.5-.1l-12-6A1.62,1.62,0,0,1,37,48V40.3a.89.89,0,0,1,.5-.8,1.18,1.18,0,0,1,1-.1L50,44.8l11.5-5.5a.92.92,0,0,1,1,.1,1,1,0,0,1,.5.8V48a1.05,1.05,0,0,1-.5.9l-12,6A.9.9,0,0,1,50,55ZM39,47.3l11,5.5,11-5.5V41.8l-10.5,5a1.1,1.1,0,0,1-.8,0l-10.6-5v5.5Z"/>
      <path class="cls-2" d="M66.9,38.9H50a1,1,0,0,1,0-2H66.9a1,1,0,0,1,0,2Z"/>
      <path class="cls-2" d="M66.9,48a.94.94,0,0,1-1-1V37.9a1,1,0,0,1,2,0V47A1,1,0,0,1,66.9,48Z"/>
      <path class="cls-2" d="M50,40.9a.94.94,0,0,1-1-1v-4a1,1,0,0,1,2,0v4A.94.94,0,0,1,50,40.9Z"/>
      <path class="cls-2" d="M65,51a1.42,1.42,0,0,1-.6-.2,1,1,0,0,1-.3-1.4h0l2-3a1,1,0,0,1,1.7,1.1h0l-2,3A1,1,0,0,1,65,51Z"/>
      <path class="cls-2" d="M68.9,51a.89.89,0,0,1-.8-.5l-2-3a1,1,0,0,1,.3-1.4h0a1,1,0,0,1,1.4.3l2,3a1,1,0,0,1-.3,1.4h0A1.42,1.42,0,0,1,68.9,51Z"/>
      <path class="cls-2" d="M50,50a.94.94,0,0,1-1-1V46a1,1,0,0,1,2,0v3A1,1,0,0,1,50,50Z"/>
      <path class="cls-2" d="M78.9,59.1H21.1a.94.94,0,0,1-1-1V24.8a4,4,0,0,1,4-4H75.9a4,4,0,0,1,4,4V58a1.09,1.09,0,0,1-1,1.1Zm-56.8-2H77.9V24.8a2,2,0,0,0-2-2H24.1a2,2,0,0,0-2,2Z"/>
      <path class="cls-2" d="M75.9,67.1H24.1a4,4,0,0,1-4-4v-5a.94.94,0,0,1,1-1H78.9a.94.94,0,0,1,1,1v5A4,4,0,0,1,75.9,67.1Zm-53.8-8v4a2,2,0,0,0,2,2H75.9a2,2,0,0,0,2-2v-4Z"/>
      <path class="cls-2" d="M53,63.1H47a1,1,0,0,1,0-2h6a1,1,0,0,1,0,2Z"/>
      <path class="cls-2" d="M74.9,59.1H25.1a.94.94,0,0,1-1-1V25.8a.94.94,0,0,1,1-1H74.9a.94.94,0,0,1,1,1V58a1.09,1.09,0,0,1-1,1.1Zm-48.8-2H73.9V26.8H26.1Z"/>
      <path class="cls-2" d="M63,79.2H37a3,3,0,0,1,0-6H63a3,3,0,0,1,0,6Zm-25.9-4a1,1,0,0,0,0,2H63a1,1,0,0,0,0-2Z"/>
      <path class="cls-2" d="M61,75.2H39a1,1,0,0,1,0-2c3.3,0,5-2.4,5-7.1a.94.94,0,0,1,1-1H55a.94.94,0,0,1,1,1c0,4.7,1.7,7.1,5,7.1a1,1,0,0,1,0,2Zm-17.1-2H56.1A9.61,9.61,0,0,1,54,67.1H46a9.81,9.81,0,0,1-2.1,6.1Z"/>
    </g>
  </g>
</svg>
